<svg width="24" height="24" viewBox="0 0 24 24" fill="none" xmlns="http://www.w3.org/2000/svg">
<path d="M12 0C5.373 0 0 5.373 0 12C0 18.627 5.373 24 12 24C18.627 24 24 18.627 24 12C24 5.373 18.627 0 12 0ZM12 15.781C13.179 15.781 14.31 15.252 15.136 14.112L16.993 15.33C15.723 17.141 13.881 18 12 18C8.692 18 6 15.308 6 12C6 8.692 8.691 6 12 6C13.861 6 15.713 6.844 16.994 8.67L15.137 9.888C14.305 8.742 13.171 8.219 12 8.219C9.916 8.219 8.219 9.915 8.219 12C8.219 14.085 9.915 15.781 12 15.781Z" fill="#F5F5F5"/>
</svg>
